<svg width="17" height="17" viewBox="0 0 17 17" fill="none" xmlns="http://www.w3.org/2000/svg">
<path d="M14.3944 8.92001H6.1577M3.25037 8.92001H2.06104M3.25037 8.92001C3.25037 8.53456 3.40349 8.1649 3.67604 7.89235C3.94859 7.6198 4.31825 7.46668 4.7037 7.46668C5.08915 7.46668 5.45881 7.6198 5.73136 7.89235C6.00392 8.1649 6.15704 8.53456 6.15704 8.92001C6.15704 9.30546 6.00392 9.67512 5.73136 9.94767C5.45881 10.2202 5.08915 10.3733 4.7037 10.3733C4.31825 10.3733 3.94859 10.2202 3.67604 9.94767C3.40349 9.67512 3.25037 9.30546 3.25037 8.92001ZM14.3944 13.3247H10.5624M10.5624 13.3247C10.5624 13.7102 10.4089 14.0803 10.1363 14.3529C9.86365 14.6255 9.49391 14.7787 9.10837 14.7787C8.72292 14.7787 8.35326 14.6249 8.08071 14.3523C7.80815 14.0798 7.65504 13.7101 7.65504 13.3247M10.5624 13.3247C10.5624 12.9391 10.4089 12.5697 10.1363 12.2971C9.86365 12.0245 9.49391 11.8713 9.10837 11.8713C8.72292 11.8713 8.35326 12.0245 8.08071 12.297C7.80815 12.5696 7.65504 12.9392 7.65504 13.3247M7.65504 13.3247H2.06104M14.3944 4.51535H12.3244M9.41704 4.51535H2.06104M9.41704 4.51535C9.41704 4.1299 9.57015 3.76024 9.84271 3.48768C10.1153 3.21513 10.4849 3.06201 10.8704 3.06201C11.0612 3.06201 11.2502 3.0996 11.4265 3.17264C11.6029 3.24568 11.7631 3.35273 11.898 3.48768C12.033 3.62264 12.14 3.78285 12.2131 3.95918C12.2861 4.13551 12.3237 4.32449 12.3237 4.51535C12.3237 4.7062 12.2861 4.89519 12.2131 5.07151C12.14 5.24784 12.033 5.40805 11.898 5.54301C11.7631 5.67796 11.6029 5.78501 11.4265 5.85805C11.2502 5.93109 11.0612 5.96868 10.8704 5.96868C10.4849 5.96868 10.1153 5.81556 9.84271 5.54301C9.57015 5.27045 9.41704 4.90079 9.41704 4.51535Z" stroke="#4B70F5" stroke-miterlimit="10" stroke-linecap="round"/>
</svg>
