<svg width="18" height="18" viewBox="0 0 18 18" fill="none" xmlns="http://www.w3.org/2000/svg">
<g clip-path="url(#clip0_2056_41269)">
<path d="M14.2027 4.51497H12.7077C12.7077 2.42197 11.0632 0.777466 8.97018 0.777466C6.87718 0.777466 5.23268 2.42197 5.23268 4.51497H3.73768C2.91543 4.51497 2.24268 5.18772 2.24268 6.00997V14.98C2.24268 15.8022 2.91543 16.475 3.73768 16.475H14.2027C15.0249 16.475 15.6977 15.8022 15.6977 14.98V6.00997C15.6977 5.18772 15.0249 4.51497 14.2027 4.51497ZM8.97018 2.27247C10.2409 2.27247 11.2127 3.24422 11.2127 4.51497H6.72768C6.72768 3.24422 7.69943 2.27247 8.97018 2.27247ZM14.2027 14.98H3.73768V6.00997H14.2027V14.98ZM8.97018 8.99997C7.69943 8.99997 6.72768 8.02822 6.72768 6.75747H5.23268C5.23268 8.85047 6.87718 10.495 8.97018 10.495C11.0632 10.495 12.7077 8.85047 12.7077 6.75747H11.2127C11.2127 8.02822 10.2409 8.99997 8.97018 8.99997Z" fill="white"/>
</g>
<defs>
<clipPath id="clip0_2056_41269">
<rect width="17.94" height="17.94" fill="white" transform="translate(0 0.0300293)"/>
</clipPath>
</defs>
</svg>
