<svg width="14" height="15" viewBox="0 0 14 15" fill="none" xmlns="http://www.w3.org/2000/svg">
<path d="M13.1371 9.97524L12.3443 9.18196L10.8946 10.6323L9.44478 9.18196L8.65205 9.97524L10.1018 11.4245L8.65205 12.8742L9.44478 13.667L10.8946 12.2172L12.3443 13.667L13.1371 12.8742L11.6873 11.4245L13.1371 9.97524ZM11.4552 0.772583C10.8607 0.773325 10.2907 1.00983 9.87031 1.43022C9.44992 1.85061 9.21342 2.42056 9.21268 3.01508C9.21471 3.41413 9.32454 3.80522 9.53055 4.14699L3.61708 10.0605C3.27531 9.85445 2.88423 9.74462 2.48518 9.74258C2.04165 9.74258 1.60809 9.8741 1.23931 10.1205C0.870533 10.3669 0.583106 10.7172 0.413377 11.1269C0.243647 11.5367 0.199238 11.9876 0.285766 12.4226C0.372293 12.8576 0.58587 13.2572 0.89949 13.5708C1.21311 13.8844 1.61268 14.098 2.04769 14.1845C2.48269 14.271 2.93358 14.2266 3.34334 14.0569C3.75311 13.8872 4.10334 13.5997 4.34975 13.2309C4.59616 12.8622 4.72768 12.4286 4.72768 11.9851C4.72564 11.586 4.61581 11.195 4.4098 10.8532L10.3233 4.93971C10.665 5.14572 11.0561 5.25555 11.4552 5.25758C12.0499 5.25758 12.6203 5.02132 13.0409 4.60077C13.4614 4.18022 13.6977 3.60983 13.6977 3.01508C13.6977 2.42034 13.4614 1.84995 13.0409 1.4294C12.6203 1.00885 12.0499 0.772583 11.4552 0.772583ZM2.48518 13.1063C2.26341 13.1063 2.04663 13.0406 1.86224 12.9174C1.67786 12.7942 1.53414 12.619 1.44928 12.4142C1.36441 12.2093 1.34221 11.9838 1.38547 11.7663C1.42873 11.5488 1.53552 11.349 1.69233 11.1922C1.84914 11.0354 2.04893 10.9286 2.26643 10.8854C2.48393 10.8421 2.70938 10.8643 2.91426 10.9492C3.11914 11.034 3.29426 11.1778 3.41746 11.3622C3.54067 11.5465 3.60643 11.7633 3.60643 11.9851C3.60643 12.2825 3.4883 12.5677 3.27802 12.7779C3.06774 12.9882 2.78255 13.1063 2.48518 13.1063ZM11.4552 4.13633C11.2334 4.13633 11.0166 4.07057 10.8322 3.94737C10.6479 3.82416 10.5041 3.64905 10.4193 3.44417C10.3344 3.23928 10.3122 3.01384 10.3555 2.79634C10.3987 2.57884 10.5055 2.37905 10.6623 2.22224C10.8191 2.06543 11.0189 1.95864 11.2364 1.91538C11.4539 1.87211 11.6794 1.89432 11.8843 1.97918C12.0891 2.06405 12.2643 2.20776 12.3875 2.39215C12.5107 2.57654 12.5764 2.79332 12.5764 3.01508C12.5764 3.31246 12.4583 3.59765 12.248 3.80793C12.0377 4.0182 11.7526 4.13633 11.4552 4.13633ZM2.48518 4.79787L1.03316 3.34585L0.242677 4.13633L2.48518 6.37883L6.40955 2.45446L5.61907 1.66398L2.48518 4.79787Z" fill="white"/>
</svg>
