<svg width="12" height="17" viewBox="0 0 12 17" fill="none" xmlns="http://www.w3.org/2000/svg">
<path d="M5.97002 12.985C5.57836 12.9851 5.19895 12.8485 4.89723 12.5988C4.59551 12.3491 4.39041 12.0019 4.3173 11.6171C3.21749 11.2772 2.24898 10.607 1.54332 9.6975C1.0106 9.0115 0.644557 8.2111 0.474064 7.35944C0.303571 6.50777 0.333292 5.62815 0.560884 4.78993C0.788476 3.95172 1.20771 3.17786 1.78553 2.52938C2.36334 1.8809 3.08393 1.37554 3.89044 1.05317C4.69696 0.730793 5.56735 0.600224 6.43296 0.671756C7.29857 0.743289 8.13572 1.01497 8.87838 1.46536C9.62104 1.91575 10.2489 2.53254 10.7124 3.26708C11.1759 4.00161 11.4625 4.8338 11.5494 5.698C11.5796 6.00635 11.3251 6.25751 11.0156 6.25751C10.7062 6.25751 10.4584 6.00523 10.4214 5.698C10.3213 4.90509 10.0112 4.15332 9.52309 3.52048C9.035 2.88763 8.38667 2.39671 7.64519 2.0985C6.90371 1.80029 6.09601 1.70562 5.30567 1.8243C4.51533 1.94298 3.77105 2.27069 3.14986 2.77353C2.52866 3.27636 2.05311 3.93605 1.77241 4.68434C1.49171 5.43262 1.41606 6.24232 1.55329 7.02966C1.69051 7.81699 2.03562 8.55336 2.55292 9.16256C3.07021 9.77176 3.7409 10.2317 4.49558 10.4947C4.63825 10.2344 4.84727 10.0165 5.10141 9.86316C5.35555 9.70979 5.64575 9.62641 5.94254 9.62149C6.23932 9.61657 6.53213 9.69028 6.79121 9.83514C7.05029 9.98 7.26642 10.1908 7.41765 10.4463C7.56888 10.7017 7.64981 10.9926 7.65224 11.2894C7.65466 11.5862 7.57849 11.8784 7.43146 12.1362C7.28443 12.3941 7.07177 12.6084 6.81509 12.7575C6.55841 12.9066 6.26685 12.9851 5.97002 12.985ZM1.48502 11.3031V11.2729C1.17843 10.9983 0.897692 10.6961 0.646325 10.3703C0.46212 10.6465 0.363806 10.9711 0.36377 11.3031V11.8638C0.36377 14.0737 2.44929 16.3488 5.97002 16.3488C9.49074 16.3488 11.5763 14.0737 11.5763 11.8638V11.3031C11.5763 10.8571 11.3991 10.4293 11.0837 10.1139C10.7682 9.79845 10.3405 9.62126 9.89439 9.62126H8.21252C8.45807 9.94642 8.63299 10.3276 8.71708 10.7425H9.89439C10.0431 10.7425 10.1857 10.8016 10.2908 10.9067C10.396 11.0118 10.455 11.1544 10.455 11.3031V11.8638C10.455 13.4761 8.84939 15.2275 5.97002 15.2275C3.09065 15.2275 1.48502 13.4761 1.48502 11.8638V11.3031ZM5.97002 8.50001C5.32845 8.49998 4.7063 8.72003 4.20741 9.12342C3.7172 8.82309 3.31245 8.40174 3.03205 7.89985C2.75165 7.39797 2.60503 6.83241 2.60627 6.25751C2.60643 5.67107 2.75991 5.09486 3.05148 4.58604C3.34305 4.07723 3.76258 3.65347 4.26845 3.35682C4.77432 3.06017 5.34896 2.90092 5.93537 2.89488C6.52177 2.88884 7.09957 3.03621 7.61145 3.32238C8.12332 3.60855 8.55149 4.02357 8.85348 4.52627C9.15547 5.02897 9.32079 5.60189 9.33304 6.1882C9.34528 6.77451 9.20403 7.35384 8.9233 7.86872C8.64257 8.38359 8.2321 8.81613 7.73262 9.12342C7.23374 8.72003 6.61158 8.49998 5.97002 8.50001ZM3.72752 6.25751C3.72752 6.85225 3.96378 7.42264 4.38433 7.84319C4.80488 8.26374 5.37527 8.50001 5.97002 8.50001C6.56477 8.50001 7.13516 8.26374 7.55571 7.84319C7.97626 7.42264 8.21252 6.85225 8.21252 6.25751C8.21252 5.66276 7.97626 5.09237 7.55571 4.67182C7.13516 4.25127 6.56477 4.01501 5.97002 4.01501C5.37527 4.01501 4.80488 4.25127 4.38433 4.67182C3.96378 5.09237 3.72752 5.66276 3.72752 6.25751Z" fill="white"/>
</svg>
