<svg width="18" height="19" viewBox="0 0 18 19" fill="none" xmlns="http://www.w3.org/2000/svg">
<g clip-path="url(#clip0_2056_41255)">
<path d="M4.48535 6.51001H7.47535" stroke="white" stroke-width="1.12125" stroke-linecap="round" stroke-linejoin="round"/>
<path d="M16.4449 8.3787C16.4449 8.32114 16.4449 7.98028 16.4434 7.95636C16.4165 7.58186 16.0958 7.28361 15.6922 7.25894C15.6668 7.25745 15.6361 7.25745 15.5733 7.25745H13.6283C12.2933 7.25745 11.2124 8.26134 11.2124 9.49995C11.2124 10.7386 12.294 11.7424 13.6268 11.7424H15.5726C15.6354 11.7424 15.666 11.7424 15.6922 11.741C16.0958 11.7163 16.4172 11.418 16.4434 11.0435C16.4449 11.0196 16.4449 10.6788 16.4449 10.6212" stroke="white" stroke-width="1.12125" stroke-linecap="round"/>
<path d="M13.455 10.2474C13.8679 10.2474 14.2025 9.91277 14.2025 9.49994C14.2025 9.08711 13.8679 8.75244 13.455 8.75244C13.0422 8.75244 12.7075 9.08711 12.7075 9.49994C12.7075 9.91277 13.0422 10.2474 13.455 10.2474Z" fill="white"/>
<path d="M9.71762 3.52002C12.5364 3.52002 13.9462 3.52002 14.8215 4.39609C15.4263 5.00007 15.6139 5.8582 15.6715 7.25752M7.47512 15.48H9.71762C12.5364 15.48 13.9462 15.48 14.8215 14.6039C15.4263 14 15.6139 13.1418 15.6715 11.7425M6.72762 3.52002C4.3999 3.52749 3.16578 3.60075 2.37119 4.39609C1.49512 5.27141 1.49512 6.6812 1.49512 9.50002C1.49512 12.3188 1.49512 13.7286 2.37119 14.6039C2.8593 15.0928 3.51337 15.3088 4.48512 15.4038" stroke="white" stroke-width="1.12125" stroke-linecap="round"/>
</g>
<defs>
<clipPath id="clip0_2056_41255">
<rect width="17.94" height="17.94" fill="white" transform="translate(0 0.530029)"/>
</clipPath>
</defs>
</svg>
